<svg id="Layer_1" data-name="Layer 1" xmlns="http://www.w3.org/2000/svg" viewBox="0 0 1366 640"><defs><style>.cls-1{fill:#333e48;}</style></defs><path class="cls-1" d="M163.92,457.48H240v1.62c0,18.61-6.67,46.89-23.68,64.59s-36.56,20.92-54.71,20.92c-18.39,0-38.16-3-56.09-21.38C96.57,514,83,495.41,83,464.84c0-25,9.2-45.06,22.07-58.15,18.85-19.55,42.07-22.31,60.23-22.31,12.63,0,28.74,2.08,43,11.5,10.35,6.89,19.31,17.69,24.82,27.36l-31.94,17.23a46.59,46.59,0,0,0-13.56-16.55,38.47,38.47,0,0,0-23.46-7.36c-14,0-24.35,4.6-31.71,12.42-8.51,9-13.11,22.07-13.11,36.32,0,17.47,6.44,28.74,12.87,35.18,9,9.19,19.31,11.95,31,11.95,15.19,0,23.22-5.29,26.67-8.28a35.74,35.74,0,0,0,11-18.16h-37Z"/><path class="cls-1" d="M319.71,387.82c19.55,0,31.74,6.44,39.09,13.35,6.44,6.2,13.32,17.23,13.32,34.24,0,9.66-2.06,21.61-11.95,31.27a48.39,48.39,0,0,1-21.37,11.73l47.12,62.75H342.7l-41.38-60.47v60.47H265.93V387.82Zm-18.39,69.66h8.05c6.44,0,15.17-.69,21.15-6.66,2.54-2.53,5.74-7.35,5.74-14.95,0-8.73-4.12-13.33-7.12-15.63-5.75-4.36-14.94-4.83-19.54-4.83h-8.28Z"/><path class="cls-1" d="M531.67,478.63c0,14.71-1.84,32.88-17,48.51-14.72,15.16-31.71,17.47-47.82,17.47s-33.1-2.31-47.81-17.47c-15.16-15.63-17-33.8-17-48.51V387.82h35.39v89.89c0,6.66.47,17.93,8,25.75,6.21,6.66,14.71,8.05,21.37,8.05s15.19-1.39,21.39-8.05c7.59-7.82,8-19.09,8-25.75V387.82h35.41Z"/><path class="cls-1" d="M620.19,387.82c13.34,0,28,1.84,40.24,12.65,13.09,11.5,14.93,26.67,14.93,37.24,0,19.31-7.35,30.11-13.09,36.1-12.19,12.4-28.29,13.56-39.1,13.56H601.58v53.79H566.16V387.82ZM601.58,458.4h12.64c4.83,0,13.33-.22,19.07-5.74A21.34,21.34,0,0,0,639,437.48c0-6.44-2.3-11.72-5.75-14.94-5.28-5.06-12.87-5.74-19.76-5.74H601.58Z"/><path class="cls-1" d="M828.61,512.19H770.68l-11.73,29H722.17L784,387.82h32.41l60.46,153.34H840.1ZM819,485.07l-18.84-51.49L781,485.07Z"/><path class="cls-1" d="M975.11,425.3c-11.48-10.34-21.37-11-25.74-11-4.82,0-10.8.69-14.94,5.29a13.66,13.66,0,0,0-3.9,9.64c0,3.68,1.14,6.44,3.44,8.51,3.68,3.45,9,4.84,19.31,8.74l11.5,4.37c6.66,2.52,14.93,6,20.92,11.72,9,8.51,11.26,19.55,11.26,28.5,0,15.87-5.52,29.66-13.57,37.94-13.56,14.24-33.33,15.63-43.44,15.63-11,0-20.69-1.61-30.34-6.43-7.82-3.92-16.78-11-22.53-16.79l18.39-25.29a94.47,94.47,0,0,0,14.25,11.73A35.6,35.6,0,0,0,939,513.35c4.6,0,11-.92,16.09-5.29a15.84,15.84,0,0,0,5.52-12.42c0-5.05-2.08-8.27-5.28-11-4.15-3.44-13.57-6.9-18-8.51l-12.63-4.37c-7.12-2.52-15.4-5.75-21.39-12.18-8-8.5-9.19-19.31-9.19-26.67,0-13.56,4.15-25.05,13.34-34.47,10.8-11,23.67-14,37.93-14A74.12,74.12,0,0,1,991,399.55Z"/><path class="cls-1" d="M1077.63,387.82c13.33,0,28,1.84,40.23,12.65,13.1,11.5,14.94,26.67,14.94,37.24,0,19.31-7.36,30.11-13.1,36.1-12.19,12.4-28.28,13.56-39.09,13.56H1059v53.79H1023.6V387.82ZM1059,458.4h12.64c4.83,0,13.33-.22,19.07-5.74a21.34,21.34,0,0,0,5.76-15.18c0-6.44-2.3-11.72-5.76-14.94-5.28-5.06-12.87-5.74-19.75-5.74h-12Z"/><path class="cls-1" d="M1234.71,512.19h-57.93l-11.71,29h-36.78l61.84-153.34h32.41L1283,541.16h-36.78Zm-9.64-27.12-18.86-51.49-19.08,51.49Z"/><polygon class="cls-1" points="786.17 263.45 786.17 201.55 679.94 173.07 679.94 263.45 786.17 263.45"/><polygon class="cls-1" points="573.71 201.55 679.94 173.07 679.94 99.98 892.4 156.8 892.4 263.45 927.81 263.45 927.81 129.79 679.94 63.39 432.07 129.79 432.07 263.45 573.71 263.45 573.71 201.55"/></svg>