<svg id="Layer_1" data-name="Layer 1" xmlns="http://www.w3.org/2000/svg" viewBox="0 0 1366 320"><defs><style>.cls-1{fill:#333e48;}</style></defs><path class="cls-1" d="M556.43,155.5h49.4v1.05c0,12.08-4.33,30.44-15.37,41.93s-23.74,13.59-35.53,13.59-24.77-1.95-36.41-13.89c-5.82-6-14.63-18.06-14.63-37.91,0-16.26,6-29.25,14.33-37.75,12.24-12.69,27.32-14.48,39.1-14.48,8.21,0,18.66,1.35,27.91,7.46C592,120,597.76,127,601.35,133.27l-20.74,11.18a30.19,30.19,0,0,0-8.81-10.74,25,25,0,0,0-15.23-4.78c-9.1,0-15.81,3-20.59,8.06-5.52,5.83-8.51,14.33-8.51,23.58,0,11.35,4.18,18.66,8.36,22.84,5.82,6,12.54,7.76,20.14,7.76,9.86,0,15.08-3.43,17.32-5.37A23.17,23.17,0,0,0,580.45,174h-24Z"/><path class="cls-1" d="M657.58,110.27c12.69,0,20.6,4.18,25.38,8.67,4.18,4,8.65,11.19,8.65,22.23,0,6.27-1.34,14-7.76,20.3A31.43,31.43,0,0,1,670,169.09l30.59,40.74H672.5l-26.86-39.26v39.26h-23V110.27ZM645.64,155.5h5.23c4.17,0,9.85-.45,13.73-4.32a13.44,13.44,0,0,0,3.72-9.71c0-5.67-2.68-8.66-4.62-10.15-3.73-2.83-9.7-3.14-12.69-3.14h-5.37Z"/><path class="cls-1" d="M795.19,169.23c0,9.55-1.19,21.35-11.05,31.5-9.55,9.84-20.59,11.34-31,11.34s-21.49-1.5-31.05-11.34c-9.84-10.15-11-21.95-11-31.5v-59h23v58.36c0,4.33.31,11.64,5.23,16.72,4,4.32,9.55,5.23,13.88,5.23s9.86-.91,13.88-5.23c4.93-5.08,5.22-12.39,5.22-16.72V110.27h23Z"/><path class="cls-1" d="M852.67,110.27c8.65,0,18.2,1.2,26.12,8.22,8.5,7.46,9.7,17.31,9.7,24.17,0,12.54-4.78,19.55-8.51,23.44-7.91,8.05-18.36,8.8-25.38,8.8h-14v34.93h-23V110.27ZM840.58,156.1h8.21c3.13,0,8.65-.15,12.38-3.73a13.86,13.86,0,0,0,3.73-9.86,13.13,13.13,0,0,0-3.73-9.7c-3.43-3.28-8.36-3.72-12.83-3.72h-7.76Z"/><path class="cls-1" d="M988,191H950.38l-7.62,18.81H918.88L959,110.27h21.05l39.25,99.56H995.44Zm-6.28-17.61L969.48,140l-12.39,33.43Z"/><path class="cls-1" d="M1083.1,134.6c-7.45-6.71-13.87-7.16-16.71-7.16-3.13,0-7,.45-9.7,3.44a8.86,8.86,0,0,0-2.53,6.26,7,7,0,0,0,2.23,5.52c2.39,2.24,5.82,3.14,12.54,5.68l7.46,2.84c4.32,1.63,9.7,3.87,13.59,7.6,5.81,5.53,7.31,12.69,7.31,18.51,0,10.3-3.59,19.26-8.81,24.63-8.81,9.25-21.64,10.15-28.21,10.15-7.16,0-13.43-1-19.7-4.18a63.47,63.47,0,0,1-14.63-10.9l11.94-16.42a61.86,61.86,0,0,0,9.26,7.62,23.07,23.07,0,0,0,12.53,3.58c3,0,7.17-.6,10.45-3.44a10.25,10.25,0,0,0,3.58-8.06,8.79,8.79,0,0,0-3.42-7.16c-2.7-2.23-8.81-4.48-11.65-5.53l-8.21-2.83c-4.62-1.63-10-3.73-13.88-7.91-5.22-5.52-6-12.54-6-17.31,0-8.81,2.69-16.27,8.66-22.38,7-7.17,15.37-9.11,24.62-9.11a48.08,48.08,0,0,1,29.55,9.85Z"/><path class="cls-1" d="M1149.66,110.27c8.66,0,18.21,1.2,26.12,8.22,8.51,7.46,9.7,17.31,9.7,24.17,0,12.54-4.78,19.55-8.5,23.44-7.92,8.05-18.36,8.8-25.38,8.8h-14v34.93h-23V110.27Zm-12.09,45.83h8.21c3.14,0,8.66-.15,12.38-3.73a13.86,13.86,0,0,0,3.74-9.86,13.09,13.09,0,0,0-3.74-9.7c-3.43-3.28-8.36-3.72-12.82-3.72h-7.77Z"/><path class="cls-1" d="M1251.65,191H1214l-7.61,18.81h-23.88l40.15-99.56h21L1283,209.83h-23.88Zm-6.26-17.61L1233.14,140l-12.38,33.43Z"/><polygon class="cls-1" points="312.9 209.83 312.9 169.63 243.93 151.14 243.93 209.83 312.9 209.83"/><polygon class="cls-1" points="174.96 169.63 243.93 151.14 243.93 103.69 381.87 140.58 381.87 209.83 404.86 209.83 404.86 123.04 243.93 79.93 83 123.04 83 209.83 174.96 209.83 174.96 169.63"/></svg>